Right_states
version=1
nRows=7
nColumns=41
inDegrees=yes

# SIMM Motion File Header:
name Right_states
datacolumns 41
datarows 7
otherdata 1
range 0.00000000 0.54896468
endheader
time	/jointset/sternoclavicular/sternoclavicular_r2/value	/jointset/sternoclavicular/sternoclavicular_r2/speed	/jointset/sternoclavicular/sternoclavicular_r3/value	/jointset/sternoclavicular/sternoclavicular_r3/speed	/jointset/unrotscap/unrotscap_r3/value	/jointset/unrotscap/unrotscap_r3/speed	/jointset/unrotscap/unrotscap_r2/value	/jointset/unrotscap/unrotscap_r2/speed	/jointset/acromioclavicular/acromioclavicular_r2/value	/jointset/acromioclavicular/acromioclavicular_r2/speed	/jointset/acromioclavicular/acromioclavicular_r3/value	/jointset/acromioclavicular/acromioclavicular_r3/speed	/jointset/acromioclavicular/acromioclavicular_r1/value	/jointset/acromioclavicular/acromioclavicular_r1/speed	/jointset/unrothum/unrothum_r1/value	/jointset/unrothum/unrothum_r1/speed	/jointset/unrothum/unrothum_r3/value	/jointset/unrothum/unrothum_r3/speed	/jointset/unrothum/unrothum_r2/value	/jointset/unrothum/unrothum_r2/speed	/jointset/shoulder0/elv_angle/value	/jointset/shoulder0/elv_angle/speed	/jointset/shoulder1/shoulder_elv/value	/jointset/shoulder1/shoulder_elv/speed	/jointset/shoulder1/shoulder1_r2/value	/jointset/shoulder1/shoulder1_r2/speed	/jointset/shoulder2/shoulder_rot/value	/jointset/shoulder2/shoulder_rot/speed	/jointset/elbow/elbow_flexion/value	/jointset/elbow/elbow_flexion/speed	/jointset/radioulnar/pro_sup/value	/jointset/radioulnar/pro_sup/speed	/jointset/radiocarpal/deviation/value	/jointset/radiocarpal/deviation/speed	/jointset/radiocarpal/flexion/value	/jointset/radiocarpal/flexion/speed	/jointset/wrist_hand/wrist_hand_r1/value	/jointset/wrist_hand/wrist_hand_r1/speed	/jointset/wrist_hand/wrist_hand_r3/value	/jointset/wrist_hand/wrist_hand_r3/speed
      0.00000000	     -7.57776301	      0.00000000	      3.20958276	     -0.00000000	     -3.20958276	      0.00000000	      7.57776301	     -0.00000000	     -1.53434287	      0.00000000	     12.40001933	     -0.00000000	      5.57372335	     -0.00000000	     -5.57372335	      0.00000000	    -12.40001933	      0.00000000	      1.53434287	     -0.00000000	    -38.26200000	      0.00000000	     31.31300011	     -0.00000000	     38.26200000	     -0.00000000	     -8.06799999	      0.00000000	     97.67699995	     -0.00000000	     -0.00000000	      0.00000000	      0.00000000	      0.00000000	      0.00000000	      0.00000000	      0.00000003	      0.00000000	      0.00000000	      0.00000000
      0.01000000	     -7.57776301	     -0.00000000	      3.20958276	      0.00000000	     -3.20958276	     -0.00000000	      7.57776301	      0.00000000	     -1.53434287	     -0.00000000	     12.40001933	      0.00000000	      5.57372335	      0.00000000	     -5.57372335	     -0.00000000	    -12.40001933	     -0.00000000	      1.53434287	      0.00000000	    -38.26200000	      0.00000000	     31.31300011	      0.00000000	     38.26200000	     -0.00000000	     -8.06799999	     -0.00000001	     97.67699995	      0.00000001	      0.00000000	      0.00000007	      0.00000000	      0.00000000	      0.00000000	      0.00000000	      0.00000003	      0.00000012	      0.00000000	      0.00000003
      0.06000000	     -7.57776301	     -0.00000000	      3.20958276	      0.00000000	     -3.20958276	     -0.00000000	      7.57776301	      0.00000000	     -1.53434287	     -0.00000000	     12.40001933	      0.00000000	      5.57372335	      0.00000000	     -5.57372335	     -0.00000000	    -12.40001933	     -0.00000000	      1.53434287	      0.00000000	    -38.26200000	      0.00000000	     31.31300011	      0.00000000	     38.26200000	     -0.00000000	     -8.06799999	     -0.00000010	     97.67699995	      0.00000003	      0.00000002	      0.00000066	      0.00000000	      0.00000001	      0.00000000	      0.00000001	      0.00000005	      0.00000041	      0.00000001	      0.00000023
      0.31000000	     -7.57776301	      0.00000012	      3.20958276	     -0.00000005	     -3.20958276	      0.00000005	      7.57776301	     -0.00000012	     -1.53434287	      0.00000002	     12.40001932	     -0.00000020	      5.57372335	     -0.00000009	     -5.57372335	      0.00000009	    -12.40001932	      0.00000020	      1.53434287	     -0.00000002	    -38.26200000	     -0.00000001	     31.31300010	     -0.00000050	     38.26200000	      0.00000001	     -8.06800087	     -0.00002711	     97.67699988	     -0.00000121	      0.00000867	      0.00026719	     -0.00000004	     -0.00000116	      0.00000009	      0.00000267	     -0.00000326	     -0.00009026	      0.00000246	      0.00007662
      0.42878240	     -7.57776289	      0.00000357	      3.20958271	     -0.00000151	     -3.20958271	      0.00000151	      7.57776289	     -0.00000357	     -1.53434284	      0.00000072	     12.40001914	     -0.00000584	      5.57372326	     -0.00000263	     -5.57372326	      0.00000263	    -12.40001914	      0.00000584	      1.53434284	     -0.00000072	    -38.26200002	     -0.00000060	     31.31299963	     -0.00001476	     38.26200002	      0.00000060	     -8.06802621	     -0.00079500	     97.67699761	     -0.00007239	      0.00026468	      0.00803641	     -0.00000135	     -0.00004133	      0.00000258	      0.00007835	     -0.00010512	     -0.00321367	      0.00007397	      0.00224465
      0.49917960	     -7.57776204	      0.00002947	      3.20958235	     -0.00001248	     -3.20958235	      0.00001248	      7.57776204	     -0.00002947	     -1.53434267	      0.00000597	     12.40001774	     -0.00004823	      5.57372264	     -0.00002168	     -5.57372264	      0.00002168	    -12.40001774	      0.00004823	      1.53434267	     -0.00000597	    -38.26200016	     -0.00000494	     31.31299611	     -0.00012178	     38.26200016	      0.00000494	     -8.06821570	     -0.00655293	     97.67698048	     -0.00059060	      0.00217980	      0.06622194	     -0.00001118	     -0.00033968	      0.00002126	      0.00064594	     -0.00086946	     -0.02641312	      0.00060908	      0.01850468
      0.54896468	     -7.57775864	      0.00013282	      3.20958091	     -0.00005626	     -3.20958091	      0.00005626	      7.57775864	     -0.00013282	     -1.53434198	      0.00002689	     12.40001218	     -0.00021735	      5.57372013	     -0.00009770	     -5.57372013	      0.00009770	    -12.40001218	      0.00021735	      1.53434198	     -0.00002689	    -38.26200073	     -0.00002225	     31.31298205	     -0.00054886	     38.26200073	      0.00002225	     -8.06897194	     -0.02952762	     97.67691243	     -0.00265451	      0.00982196	      0.29838812	     -0.00005038	     -0.00153054	      0.00009580	      0.00291048	     -0.00391730	     -0.11901974	      0.00274457	      0.08337898
